PathFileType	4	(X/Y/Z)	 s06c0101.trc
DataRate	CameraRate	NumFrames	NumMarkers	Units	OrigDataRate	OrigDataStartFrame	OrigNumFrames
200	200	5	49	mm	200	751	2000
Frame#	Time	racr			lacr			c7			jug			rlel			rdr			llel			ldr			s2			lic			ric			lasi			rasi			rpsi			lpsi			rgt			lgt			rth1			rth2			rth3			rth4			rlfc			rmfc			rsh1			rsh2			rsh3			rsh4			rlmal			rmmal			rcal			rtoe			rmt5			lth1			lth2			lth4			lth3			llfc			lmfc			llmal			lcal			lmt5			lsh1			lsh2			lsh3			lsh4			ltoe			SBIKE			LBIKE			RBIKE			
		X1	Y1	Z1	X2	Y2	Z2	X3	Y3	Z3	X4	Y4	Z4	X5	Y5	Z5	X6	Y6	Z6	X7	Y7	Z7	X8	Y8	Z8	X9	Y9	Z9	X10	Y10	Z10	X11	Y11	Z11	X12	Y12	Z12	X13	Y13	Z13	X14	Y14	Z14	X15	Y15	Z15	X16	Y16	Z16	X17	Y17	Z17	X18	Y18	Z18	X19	Y19	Z19	X20	Y20	Z20	X21	Y21	Z21	X22	Y22	Z22	X23	Y23	Z23	X24	Y24	Z24	X25	Y25	Z25	X26	Y26	Z26	X27	Y27	Z27	X28	Y28	Z28	X29	Y29	Z29	X30	Y30	Z30	X31	Y31	Z31	X32	Y32	Z32	X33	Y33	Z33	X34	Y34	Z34	X35	Y35	Z35	X36	Y36	Z36	X37	Y37	Z37	X38	Y38	Z38	X39	Y39	Z39	X40	Y40	Z40	X41	Y41	Z41	X42	Y42	Z42	X43	Y43	Z43	X44	Y44	Z44	X45	Y45	Z45	X46	Y46	Z46	X47	Y47	Z47	X48	Y48	Z48	X49	Y49	Z49	
751	3.7550	515.266397	1275.879134	-80.193725	520.185231	1257.449923	-370.620150	521.490370	1332.645071	-233.522731	493.254245	1174.084071	-231.010868	525.335913	1044.709279	45.576278	715.166930	921.926390	-37.428534	475.700683	1007.436538	-457.030127	694.630612	938.741477	-401.022712	-41.507505	1180.961172	-190.505628	105.117781	1152.507905	-373.373752	112.939782	1138.004604	-39.135371	123.558836	1103.991393	-339.459740	139.481098	1098.195276	-77.516103	-5.060822	1221.030585	-162.694186	-14.686040	1219.277908	-221.274555	69.559174	1043.097113	-16.587568	89.551489	1122.588027	-394.017049	143.426970	928.228804	-12.330975	198.292558	858.029943	-27.000180	212.110004	772.735517	-35.910579	229.216180	875.328344	-38.633285	230.747110	668.218602	-51.457483	218.709267	649.642132	-164.213041	186.018106	554.569392	-28.522868	169.956274	471.273634	-51.760774	118.277797	401.418736	-54.289269	192.261040	466.507777	-85.128715	74.802988	331.907870	-61.708626	112.035806	316.103459	-149.922907	13.307798	344.312498	-111.124748	205.323203	145.382908	-96.353240	116.397325	197.275942	-33.877164	160.001784	1033.879412	-403.575994	244.471733	1013.610124	-394.693585	260.663678	1043.704274	-379.008704	309.326944	951.804629	-393.382293	381.576658	860.902374	-363.775821	379.442728	835.962344	-247.439791	211.968751	520.295649	-378.372747	137.035234	480.366181	-334.607454	334.189343	466.598960	-407.249746	340.646384	759.828898	-390.002889	319.636480	676.163312	-377.036295	264.349351	609.766071	-389.740060	341.683075	666.691645	-345.579719	417.996193	482.198886	-346.670407	-203.886172	871.027626	-212.599085	-48.840357	84.158788	-419.566936	-50.294119	80.107392	-22.246930	
752	3.7600	514.264568	1275.805575	-78.444994	519.949696	1258.967882	-369.115201	520.685365	1333.006832	-231.130795	492.836007	1174.356261	-229.262839	524.555409	1044.304234	46.710956	714.292976	921.843261	-36.258129	475.031020	1008.383173	-455.119273	694.259349	938.930883	-400.636271	-42.974054	1180.321040	-190.462174	104.497672	1151.192801	-373.328128	110.925347	1138.063413	-38.339181	123.241925	1102.850956	-339.182669	137.892928	1098.186955	-77.152515	-6.844454	1220.484551	-162.803117	-15.606767	1218.335395	-221.734484	69.059646	1043.738555	-15.476703	88.446879	1120.146636	-394.120460	145.167694	929.938468	-13.182392	202.323654	861.296200	-27.443049	218.363984	776.774256	-36.490125	231.981346	878.927797	-40.376098	237.049720	671.863799	-52.368932	224.591600	653.454597	-164.779900	188.823737	559.276093	-28.840895	170.473679	476.638331	-51.471923	116.096877	408.490564	-54.069979	192.103053	471.005967	-85.484973	70.597008	340.003360	-61.416192	107.627934	323.305023	-149.607729	8.873039	354.287803	-110.357781	197.100342	150.819601	-96.234424	109.212637	204.455492	-33.701563	158.386531	1029.354230	-403.140319	242.426246	1007.434428	-394.277610	259.282792	1037.505987	-379.334800	306.044419	944.374506	-392.421526	376.755171	853.249902	-363.219173	375.533232	828.253631	-246.977294	216.992839	508.596385	-377.526746	143.326660	466.556367	-333.349127	340.361738	458.955229	-407.500587	338.543296	751.156087	-389.485023	320.051479	666.865764	-376.119448	266.648540	598.830656	-388.590763	342.374517	658.085206	-344.749729	423.930270	476.626431	-347.268619	-203.913688	870.929178	-212.441919	-48.865763	84.203253	-419.623639	-50.298525	79.910828	-22.225090	
753	3.7650	513.041634	1275.687106	-77.048035	519.661259	1260.523156	-367.627623	519.916231	1333.150509	-228.665659	492.002413	1174.492481	-227.469462	524.127337	1043.989516	48.123633	713.704595	921.928251	-35.539897	474.496269	1009.234209	-453.280490	693.962886	939.112093	-400.213871	-43.985354	1179.431643	-183.314629	104.106063	1149.518379	-373.333405	108.822745	1137.838434	-37.586639	123.032782	1101.299216	-338.965496	136.337142	1097.710237	-76.874852	-8.063145	1219.771400	-163.265424	-16.655666	1217.094117	-222.247754	68.804372	1044.268801	-14.421146	87.429867	1117.343969	-394.239720	147.372471	931.598623	-13.342587	206.284180	864.818841	-27.700832	223.711282	780.514988	-37.267190	235.767888	883.472847	-40.921081	243.420528	675.445296	-53.141036	230.032078	657.086382	-165.821549	191.753300	564.080404	-28.919312	170.838600	481.886840	-51.527906	114.481028	415.521807	-53.943605	192.280826	475.877470	-85.368271	66.636341	348.358140	-61.150483	102.670327	330.943520	-149.500549	5.042241	364.014167	-109.890242	189.395213	156.805689	-96.206386	102.624125	212.092934	-33.547353	156.916724	1024.770526	-402.787132	240.516627	1001.275525	-393.879115	258.013290	1031.034397	-379.201390	302.807706	936.984106	-391.474028	372.034348	845.218029	-362.643576	371.796230	820.216021	-246.664767	221.560923	497.188909	-376.673623	149.494740	452.963346	-331.929504	345.800972	450.284464	-407.321326	336.355154	741.880973	-388.784072	320.366191	657.384546	-375.290817	268.768527	587.807680	-387.134452	343.078415	649.285229	-343.879789	429.526148	470.267509	-348.334898	-203.944925	870.866048	-212.280697	-48.892470	84.168066	-419.570052	-50.334567	79.845256	-22.206517	
754	3.7700	511.690593	1275.467488	-75.858781	519.432559	1262.227804	-366.986045	519.042114	1333.147743	-226.465940	491.190128	1174.463071	-225.893095	523.197976	1043.905588	49.602086	713.249160	922.198214	-34.768781	474.062609	1010.032345	-451.717711	693.660287	939.286920	-399.784811	-45.234131	1177.971277	-183.663114	103.904133	1147.558828	-373.308891	106.796399	1137.315141	-36.958005	122.962641	1099.462993	-338.690210	134.771551	1097.233712	-75.964904	-9.686193	1218.603256	-163.759756	-17.761508	1215.598690	-222.849530	68.652201	1044.686451	-13.309220	86.656509	1114.167501	-394.426647	150.371648	933.581497	-13.089743	210.091277	867.978463	-28.567946	229.396730	784.132013	-37.746013	238.845984	887.010436	-42.019225	249.508239	678.854881	-53.803874	235.701343	660.526263	-166.133143	194.948383	568.825275	-29.019524	171.463481	487.408790	-51.574777	112.981117	422.926345	-53.709557	192.461589	480.534505	-85.737527	63.308778	357.076744	-60.840495	99.928193	339.397347	-148.695884	1.737009	373.951191	-109.445385	182.227584	163.284401	-96.189510	96.532620	220.221940	-33.432892	155.663977	1020.237659	-402.582891	238.740576	995.119269	-393.517131	256.653370	1024.518201	-378.648773	299.742201	929.690553	-390.675620	367.474470	836.881800	-362.219534	368.015404	812.382549	-246.563323	225.837996	485.577718	-375.702786	155.178737	439.910954	-330.305737	350.851485	441.427771	-407.546690	334.246662	732.485513	-388.412404	320.571283	647.717998	-374.276193	270.807067	576.533842	-385.560494	343.678073	640.498634	-343.106586	434.577336	463.142469	-349.323804	-203.987969	870.838421	-212.100902	-48.935187	84.149467	-419.535508	-50.351151	79.812021	-22.177162	
755	3.7750	510.450534	1275.001661	-75.444454	519.145620	1263.466645	-365.460919	518.161614	1332.928532	-224.352455	490.470896	1174.202618	-224.670512	522.979600	1043.819769	51.458486	712.683745	922.302370	-33.885139	473.599159	1010.677478	-450.327296	693.380482	939.427752	-399.369270	-46.383883	1176.313550	-184.283183	103.894985	1145.463842	-373.257674	104.838248	1136.491256	-36.512119	123.087519	1097.476855	-338.409835	133.207889	1096.502495	-75.326057	-11.423428	1217.252876	-164.123774	-18.618163	1213.824118	-223.505910	68.685266	1044.929339	-12.409084	85.914812	1110.712373	-394.605506	152.386424	935.504344	-13.068990	212.741328	870.672181	-30.163077	235.116659	787.627375	-37.745175	242.031311	890.796145	-42.810418	255.478641	682.491592	-54.325709	241.145040	663.902160	-166.329215	198.409580	573.601599	-29.100921	172.362783	493.010664	-51.730324	112.122894	429.961338	-53.884825	192.965395	485.574375	-86.109559	60.288175	366.108050	-60.625617	95.709605	347.616465	-149.024275	-0.795700	383.699310	-109.401142	175.615978	170.428422	-96.215179	91.007526	228.790733	-33.295558	154.575018	1015.722002	-402.376982	237.152622	989.029158	-393.110128	255.620832	1018.145607	-378.357106	296.921779	922.628680	-389.865424	363.188806	827.915275	-361.858993	364.399848	803.538207	-247.832697	229.958470	473.970129	-374.720631	160.369856	427.187250	-328.633888	355.664466	432.015557	-407.596518	332.377389	722.916812	-388.180262	320.730207	637.757851	-373.243348	272.746063	565.338103	-383.927561	344.042262	631.299643	-342.186099	439.619423	455.207855	-350.326328	-204.045840	870.805274	-211.896251	-48.964625	84.163824	-419.510931	-50.396945	79.769348	-22.127343	
